
 <svg width="219" height="61" viewBox="0 0 219 61" fill="none" xmlns="http://www.w3.org/2000/svg">
    <rect width="219" height="61" fill="#576F35"/>
    <path d="M28.3587 22.1765H26.1034C25.4075 22.1765 24.8433 22.7294 24.8433 23.4114V25.6216C24.8433 26.3036 25.4075 26.8565 26.1034 26.8565H28.3587C29.0547 26.8565 29.6188 26.3036 29.6188 25.6216V23.4114C29.6188 22.7294 29.0547 22.1765 28.3587 22.1765Z" fill="#FBFBFB"/>
    <path d="M15.7858 34.96H13.357C12.6076 34.96 12 35.5129 12 36.1949V38.4051C12 39.0871 12.6076 39.64 13.357 39.64H15.7858C16.5353 39.64 17.1429 39.0871 17.1429 38.4051V36.1949C17.1429 35.5129 16.5353 34.96 15.7858 34.96Z" fill="#FBFBFB"/>
    <path d="M15.5154 28.5148H13.2601C12.5642 28.5148 12 29.0676 12 29.7496V31.9599C12 32.6419 12.5643 33.1948 13.2602 33.1948H15.5154C16.2113 33.1948 16.7755 32.6419 16.7755 31.9599V29.7496C16.7755 29.0676 16.2113 28.5148 15.5154 28.5148Z" fill="#FBFBFB"/>
    <path d="M21.9933 34.9252H19.738C19.0421 34.9252 18.4779 35.4781 18.4779 36.1601L18.4778 38.3703C18.4778 39.0523 19.0422 39.6052 19.7381 39.6052H21.9933C22.6893 39.6052 23.2534 39.0523 23.2534 38.3703V36.1601C23.2534 35.4781 22.6893 34.9252 21.9933 34.9252Z" fill="#FBFBFB"/>
    <path d="M15.5154 22.0485H13.2601C12.5642 22.0485 12 22.6014 12 23.2834V25.4936C12 26.1756 12.5643 26.7285 13.2602 26.7285H15.5154C16.2113 26.7285 16.7755 26.1756 16.7755 25.4936V23.2834C16.7755 22.6014 16.2113 22.0485 15.5154 22.0485Z" fill="#FBFBFB"/>
    <path d="M22.1677 28.5798H19.9124C19.2165 28.5798 18.6523 29.1327 18.6523 29.8147V32.0249C18.6523 32.7069 19.2166 33.2598 19.9125 33.2598H22.1677C22.8636 33.2598 23.4278 32.7069 23.4278 32.0249V29.8147C23.4278 29.1327 22.8636 28.5798 22.1677 28.5798Z" fill="#FBFBFB"/>
    <path d="M28.5 34.9252H26.2447C25.5488 34.9252 24.9846 35.4781 24.9846 36.1601V38.3703C24.9846 39.0523 25.5489 39.6052 26.2448 39.6052H28.5C29.1959 39.6052 29.7601 39.0523 29.7601 38.3703V36.1601C29.7601 35.4781 29.1959 34.9252 28.5 34.9252Z" fill="#FBFBFB"/>
    <path d="M21.8947 22.1258H19.6394C18.9435 22.1258 18.3793 22.6787 18.3793 23.3607V25.5709C18.3793 26.2529 18.9436 26.8058 19.6395 26.8058H21.8947C22.5906 26.8058 23.1548 26.2525 23.1548 25.5705V23.3607C23.1548 22.6787 22.5906 22.1258 21.8947 22.1258Z" fill="#FBFBFB"/>
    <path d="M28.3371 28.7083H26.0818C25.3859 28.7083 24.8217 29.2611 24.8217 29.9431V32.1534C24.8217 32.8354 25.386 33.3883 26.0819 33.3883H28.3371C29.033 33.3883 29.5972 32.8354 29.5972 32.1534V29.9431C29.5972 29.2611 29.033 28.7083 28.3371 28.7083Z" fill="#FBFBFB"/>
    <path d="M45.2504 39C40.8919 39 38 36.06 38 31.48C38 27 40.8506 24 45.1471 24C48.762 24 51.3028 26.06 51.6746 29.16H48.6794C48.3902 27.38 47.0062 26.38 45.1471 26.38C42.5444 26.38 40.9952 28.42 40.9952 31.48C40.9952 34.84 42.7303 36.62 45.2504 36.62C47.44 36.62 48.8446 35.42 48.9892 33.62V33.42H44.9612V31.18H51.7779V33.02C51.6539 36.6 49.0512 39 45.2504 39Z" fill="#FBFBFB"/>
    <path d="M53.5837 38.8V24.2H60.8341C64.5316 24.2 65.9982 25.94 65.9982 28.46C65.9982 30.72 64.3457 31.8 62.4247 32.06V32.12C63.664 32.42 64.2218 33.08 64.7382 34.38C65.3992 36.02 65.5025 37.98 66.3494 38.68V38.8H63.0444C62.342 38.12 62.1768 35.98 61.805 34.68C61.4331 33.34 60.6275 33.18 59.1196 33.18H56.4756V38.8H53.5837ZM56.4756 30.86H60.5243C62.2181 30.86 63.003 29.9 63.003 28.66C63.003 27.3 62.0322 26.52 60.5243 26.52H56.4756V30.86Z" fill="#FBFBFB"/>
    <path d="M67.919 38.8V24.2H78.2265V26.52H70.8109V30H77.5036V32.32H70.8109V36.42H78.3298V38.8H67.919Z" fill="#FBFBFB"/>
    <path d="M80.3378 38.8V24.2H90.6454V26.52H83.2298V30H89.9224V32.32H83.2298V36.42H90.7487V38.8H80.3378Z" fill="#FBFBFB"/>
    <path d="M92.7567 38.8V24.2H96.2683L101.267 32.26C102.796 34.7 102.982 35.5 102.982 35.5H103.044L103.002 24.2H105.894V38.8H102.362L97.1772 30.5C95.9998 28.62 95.69 27.48 95.69 27.48H95.6486V38.8H92.7567Z" fill="#FBFBFB"/>
    <path d="M108.07 38.8V35.84H111.086V38.8H108.07Z" fill="#FBFBFB"/>
    <path d="M113.257 38.8V24.2H116.149V30.04H123.069V24.2H125.961V38.8H123.069V32.36H116.149V38.8H113.257Z" fill="#FBFBFB"/>
    <path d="M127.197 38.8L132.981 24.2H136.121L141.987 38.8H138.889L137.67 35.44H131.411L130.192 38.8H127.197ZM132.237 33.12H136.844L135.501 29.52C134.572 26.86 134.551 26.38 134.551 26.38H134.51C134.51 26.38 134.51 26.86 133.58 29.52L132.237 33.12Z" fill="#FBFBFB"/>
    <path d="M143.219 38.8V24.2H150.469C154.167 24.2 155.634 25.94 155.634 28.46C155.634 30.72 153.981 31.8 152.06 32.06V32.12C153.299 32.42 153.857 33.08 154.374 34.38C155.035 36.02 155.138 37.98 155.985 38.68V38.8H152.68C151.977 38.12 151.812 35.98 151.44 34.68C151.068 33.34 150.263 33.18 148.755 33.18H146.111V38.8H143.219ZM146.111 30.86H150.16C151.853 30.86 152.638 29.9 152.638 28.66C152.638 27.3 151.668 26.52 150.16 26.52H146.111V30.86Z" fill="#FBFBFB"/>
    <path d="M160.62 38.8L155.084 24.2H158.183C158.183 24.2 161.178 32.38 161.488 33.38C161.984 34.98 162.211 35.8 162.211 35.8H162.252C162.232 35.8 162.459 34.98 162.975 33.38C163.306 32.38 166.177 24.2 166.177 24.2H169.172L163.843 38.8H160.62Z" fill="#FBFBFB"/>
    <path d="M170.356 38.8V24.2H180.664V26.52H173.248V30H179.941V32.32H173.248V36.42H180.767V38.8H170.356Z" fill="#FBFBFB"/>
    <path d="M187.947 39C184.105 39 181.791 36.98 181.791 33.98H185.096C185.055 35.68 186.212 36.62 187.947 36.62C189.785 36.62 190.653 35.92 190.653 34.88C190.653 33.84 189.909 33.4 187.265 32.7C184.848 32.06 182.204 31.3 182.204 28.3C182.204 25.92 184.353 24 187.74 24C191.231 24 193.462 25.9 193.462 28.58H190.26C190.24 27.16 189.248 26.38 187.74 26.38C186.274 26.38 185.303 27.1 185.303 28.06C185.303 29.2 186.108 29.56 188.215 30.14C191.334 30.98 193.854 31.32 193.854 34.58C193.854 37.2 191.396 39 187.947 39Z" fill="#FBFBFB"/>
    <path d="M198.564 38.8V26.58H193.999V24.2H206V26.58H201.456V38.8H198.564Z" fill="#FBFBFB"/>
    </svg>