    <svg width="219" height="61" viewBox="0 0 219 61" fill="none" xmlns="http://www.w3.org/2000/svg">
        <rect width="219" height="61" fill="#576F35"/>
        <path d="M39.5411 22.1569H37.5364C36.9178 22.1569 36.4163 22.6483 36.4163 23.2546V25.2192C36.4163 25.8255 36.9178 26.3169 37.5364 26.3169H39.5411C40.1597 26.3169 40.6612 25.8255 40.6612 25.2192V23.2546C40.6612 22.6483 40.1597 22.1569 39.5411 22.1569Z" fill="#FBFBFB"/>
        <path d="M28.3652 33.52H26.2062C25.54 33.52 25 34.0115 25 34.6177V36.5823C25 37.1886 25.54 37.68 26.2062 37.68H28.3652C29.0314 37.68 29.5714 37.1886 29.5714 36.5823V34.6177C29.5714 34.0115 29.0314 33.52 28.3652 33.52Z" fill="#FBFBFB"/>
        <path d="M28.1248 27.7909H26.1201C25.5015 27.7909 25 28.2823 25 28.8886V30.8532C25 31.4595 25.5016 31.9509 26.1202 31.9509H28.1248C28.7434 31.9509 29.2449 31.4595 29.2449 30.8532V28.8886C29.2449 28.2823 28.7434 27.7909 28.1248 27.7909Z" fill="#FBFBFB"/>
        <path d="M33.883 33.4891H31.8782C31.2596 33.4891 30.7582 33.9805 30.7582 34.5868L30.758 36.5514C30.758 37.1576 31.2598 37.6491 31.8783 37.6491H33.883C34.5016 37.6491 35.0031 37.1576 35.0031 36.5514V34.5868C35.0031 33.9805 34.5016 33.4891 33.883 33.4891Z" fill="#FBFBFB"/>
        <path d="M28.1248 22.0431H26.1201C25.5015 22.0431 25 22.5346 25 23.1408V25.1054C25 25.7117 25.5016 26.2031 26.1202 26.2031H28.1248C28.7434 26.2031 29.2449 25.7117 29.2449 25.1054V23.1408C29.2449 22.5346 28.7434 22.0431 28.1248 22.0431Z" fill="#FBFBFB"/>
        <path d="M34.0379 27.8487H32.0332C31.4146 27.8487 30.9131 28.3402 30.9131 28.9464V30.911C30.9131 31.5173 31.4147 32.0087 32.0333 32.0087H34.0379C34.6566 32.0087 35.158 31.5173 35.158 30.911V28.9464C35.158 28.3402 34.6566 27.8487 34.0379 27.8487Z" fill="#FBFBFB"/>
        <path d="M39.6667 33.4891H37.6619C37.0434 33.4891 36.5419 33.9805 36.5419 34.5868V36.5514C36.5419 37.1576 37.0435 37.6491 37.662 37.6491H39.6667C40.2853 37.6491 40.7868 37.1576 40.7868 36.5514V34.5868C40.7868 33.9805 40.2853 33.4891 39.6667 33.4891Z" fill="#FBFBFB"/>
        <path d="M33.7953 22.1119H31.7906C31.172 22.1119 30.6705 22.6033 30.6705 23.2095V25.1742C30.6705 25.7804 31.1721 26.2719 31.7907 26.2719H33.7953C34.4139 26.2719 34.9154 25.78 34.9154 25.1738V23.2095C34.9154 22.6033 34.4139 22.1119 33.7953 22.1119Z" fill="#FBFBFB"/>
        <path d="M39.5219 27.9629H37.5171C36.8985 27.9629 36.3971 28.4543 36.3971 29.0606V31.0252C36.3971 31.6315 36.8987 32.1229 37.5172 32.1229H39.5219C40.1405 32.1229 40.642 31.6315 40.642 31.0252V29.0606C40.642 28.4543 40.1405 27.9629 39.5219 27.9629Z" fill="#FBFBFB"/>
        <path d="M51.301 36C47.5132 36 45 33.648 45 29.984C45 26.4 47.4773 24 51.2112 24C54.3527 24 56.5607 25.648 56.8839 28.128H54.2809C54.0296 26.704 52.8268 25.904 51.2112 25.904C48.9493 25.904 47.603 27.536 47.603 29.984C47.603 32.672 49.1109 34.096 51.301 34.096C53.2038 34.096 54.4245 33.136 54.5502 31.696V31.536H51.0496V29.744H56.9736V31.216C56.8659 34.08 54.604 36 51.301 36Z" fill="#FBFBFB"/>
        <path d="M58.543 35.84V24.16H64.8439C68.0572 24.16 69.3318 25.552 69.3318 27.568C69.3318 29.376 67.8957 30.24 66.2262 30.448V30.496C67.3033 30.736 67.788 31.264 68.2368 32.304C68.8112 33.616 68.901 35.184 69.637 35.744V35.84H66.7647C66.1544 35.296 66.0108 33.584 65.6876 32.544C65.3645 31.472 64.6644 31.344 63.354 31.344H61.0562V35.84H58.543ZM61.0562 29.488H64.5747C66.0467 29.488 66.7288 28.72 66.7288 27.728C66.7288 26.64 65.8851 26.016 64.5747 26.016H61.0562V29.488Z" fill="#FBFBFB"/>
        <path d="M71.001 35.84V24.16H79.9588V26.016H73.5142V28.8H79.3305V30.656H73.5142V33.936H80.0485V35.84H71.001Z" fill="#FBFBFB"/>
        <path d="M81.7936 35.84V24.16H90.7514V26.016H84.3068V28.8H90.1231V30.656H84.3068V33.936H90.8411V35.84H81.7936Z" fill="#FBFBFB"/>
        <path d="M92.5862 35.84V24.16H95.638L99.9822 30.608C101.311 32.56 101.472 33.2 101.472 33.2H101.526L101.49 24.16H104.003V35.84H100.934L96.4278 29.2C95.4046 27.696 95.1353 26.784 95.1353 26.784H95.0994V35.84H92.5862Z" fill="#FBFBFB"/>
        <path d="M105.894 35.84V33.472H108.515V35.84H105.894Z" fill="#FBFBFB"/>
        <path d="M110.402 35.84V24.16H112.916V28.832H118.929V24.16H121.442V35.84H118.929V30.688H112.916V35.84H110.402Z" fill="#FBFBFB"/>
        <path d="M122.517 35.84L127.543 24.16H130.272L135.37 35.84H132.677L131.618 33.152H126.179L125.12 35.84H122.517ZM126.897 31.296H130.9L129.733 28.416C128.925 26.288 128.907 25.904 128.907 25.904H128.871C128.871 25.904 128.871 26.288 128.064 28.416L126.897 31.296Z" fill="#FBFBFB"/>
        <path d="M136.44 35.84V24.16H142.741C145.955 24.16 147.229 25.552 147.229 27.568C147.229 29.376 145.793 30.24 144.124 30.448V30.496C145.201 30.736 145.685 31.264 146.134 32.304C146.709 33.616 146.798 35.184 147.534 35.744V35.84H144.662C144.052 35.296 143.908 33.584 143.585 32.544C143.262 31.472 142.562 31.344 141.251 31.344H138.954V35.84H136.44ZM138.954 29.488H142.472C143.944 29.488 144.626 28.72 144.626 27.728C144.626 26.64 143.782 26.016 142.472 26.016H138.954V29.488Z" fill="#FBFBFB"/>
        <path d="M151.563 35.84L146.752 24.16H149.445C149.445 24.16 152.048 30.704 152.317 31.504C152.748 32.784 152.945 33.44 152.945 33.44H152.981C152.963 33.44 153.161 32.784 153.609 31.504C153.897 30.704 156.392 24.16 156.392 24.16H158.995L154.363 35.84H151.563Z" fill="#FBFBFB"/>
        <path d="M160.024 35.84V24.16H168.982V26.016H162.537V28.8H168.354V30.656H162.537V33.936H169.072V35.84H160.024Z" fill="#FBFBFB"/>
        <path d="M175.311 36C171.972 36 169.961 34.384 169.961 31.984H172.834C172.798 33.344 173.803 34.096 175.311 34.096C176.909 34.096 177.662 33.536 177.662 32.704C177.662 31.872 177.016 31.52 174.718 30.96C172.618 30.448 170.32 29.84 170.32 27.44C170.32 25.536 172.187 24 175.131 24C178.165 24 180.104 25.52 180.104 27.664H177.321C177.303 26.528 176.442 25.904 175.131 25.904C173.857 25.904 173.013 26.48 173.013 27.248C173.013 28.16 173.713 28.448 175.544 28.912C178.255 29.584 180.445 29.856 180.445 32.464C180.445 34.56 178.309 36 175.311 36Z" fill="#FBFBFB"/>
        <path d="M184.537 35.84V26.064H180.57V24.16H191V26.064H187.051V35.84H184.537Z" fill="#FBFBFB"/>
        </svg>
        